<?xml version="1.0" standalone="no"?>
<!DOCTYPE svg PUBLIC "-//W3C//DTD SVG 20010904//EN"
 "http://www.w3.org/TR/2001/REC-SVG-20010904/DTD/svg10.dtd">
<svg version="1.0" xmlns="http://www.w3.org/2000/svg"
 width="92.000000pt" height="92.000000pt" viewBox="0 0 92.000000 92.000000"
 preserveAspectRatio="xMidYMid meet">
<metadata>
Created by potrace 1.11, written by Peter Selinger 2001-2013
</metadata>
<g transform="translate(0.000000,92.000000) scale(0.100000,-0.100000)"
fill="#000000" stroke="none">
<path d="M183 854 c-61 -22 -126 -85 -153 -146 -47 -107 -26 -254 47 -326 88
-87 248 -102 396 -36 l37 17 0 93 0 93 36 7 c19 3 43 3 53 -2 17 -8 9 -30 -78
-239 -53 -127 -100 -235 -104 -241 -3 -6 -20 -14 -37 -17 -16 -4 -30 -11 -30
-17 0 -17 297 -13 356 5 55 16 100 53 119 99 25 58 -1 135 -55 163 -22 11 -22
12 13 21 98 27 158 133 112 198 -34 50 -72 57 -332 61 -250 5 -285 0 -210 -32
l33 -14 -1 -75 c-1 -83 -11 -101 -58 -112 -122 -29 -179 34 -183 204 -5 186
52 275 170 267 58 -4 91 -25 131 -88 17 -25 38 -46 48 -46 15 -1 17 9 17 83 0
47 -4 87 -9 91 -6 3 -19 -4 -29 -16 -19 -20 -21 -20 -53 -3 -47 24 -180 29
-236 8z m628 -321 c37 -37 30 -118 -12 -154 -31 -27 -85 -41 -141 -37 l-46 3
44 106 45 106 46 -3 c28 -2 54 -11 64 -21z m-78 -251 c17 -17 21 -33 21 -75
-2 -91 -43 -130 -153 -145 -60 -9 -91 -1 -91 21 0 6 19 60 43 120 l42 109 58
-4 c42 -3 64 -10 80 -26z"/>
</g>
</svg>
